<?xml version="1.0" encoding="UTF-8" standalone="no"?>
<!-- Created with Inkscape (http://www.inkscape.org/) -->

<svg
   width="500"
   height="129.72508"
   viewBox="0 0 132.29167 34.323096"
   version="1.1"
   id="svg1"
   xml:space="preserve"
   xmlns:inkscape="http://www.inkscape.org/namespaces/inkscape"
   xmlns:sodipodi="http://sodipodi.sourceforge.net/DTD/sodipodi-0.dtd"
   xmlns="http://www.w3.org/2000/svg"
   xmlns:svg="http://www.w3.org/2000/svg"><sodipodi:namedview
     id="namedview1"
     pagecolor="#ffffff"
     bordercolor="#000000"
     borderopacity="0.25"
     inkscape:showpageshadow="2"
     inkscape:pageopacity="0.0"
     inkscape:pagecheckerboard="0"
     inkscape:deskcolor="#d1d1d1"
     inkscape:document-units="mm" /><defs
     id="defs1" /><g
     inkscape:label="Capa 1"
     inkscape:groupmode="layer"
     id="layer1"
     transform="translate(-5.7813331e-7,-48.984286)"><g
       id="datos_gob"
       transform="matrix(0.42093568,0,0,0.42093568,5.7813332e-7,48.984286)"><g
         id="Capa_1-2"><path
           id="Trazado_2593"
           d="m 119.67,41.2 c 7.56,0 9.87,-3.61 9.87,-8 0,-5.08 -4.4,-6.71 -7.9,-7.5 -3.27,-0.76 -4.79,-0.91 -4.79,-2.27 0,-0.96 0.84,-1.41 2.59,-1.41 1.7,0.05 3.33,0.69 4.62,1.81 l 4.05,-4.34 c -2.32,-2.28 -5.49,-3.49 -8.74,-3.33 -5.13,0 -9.3,2.2 -9.3,7.61 0,5.02 3.67,6.81 6.93,7.67 3.89,1.01 5.42,1.01 5.42,2.31 0,1.01 -0.76,1.46 -3.27,1.46 -2.25,-0.03 -4.39,-0.94 -5.98,-2.53 l -4.45,3.95 c 2.09,2.48 5.35,4.54 10.93,4.54 M 92.44,34.74 c -3.38,0 -5.47,-2.48 -5.47,-6.05 0,-3.57 2.09,-6.05 5.47,-6.05 3.38,0 5.42,2.42 5.42,6.05 0,3.63 -2.03,6.05 -5.42,6.05 m 0,6.42 c 7.44,0 13.19,-5.18 13.19,-12.46 0,-7.28 -5.75,-12.57 -13.19,-12.57 -7.44,0 -13.24,5.28 -13.24,12.6 0,7.32 5.8,12.46 13.24,12.46 m -22.69,0.12 c 2.43,0.09 4.81,-0.68 6.71,-2.19 l -2.88,-5.29 c -0.75,0.61 -1.68,0.96 -2.65,1.01 -1.18,0 -1.97,-0.51 -1.97,-2.93 V 23 h 6.15 V 16.69 H 68.94 V 4.18 H 61.38 V 16.69 H 57.82 V 23 h 3.56 v 8.68 c 0,7.21 3.49,9.64 8.32,9.64 M 46,30.95 v 0.96 c 0,2.03 -1.58,3.38 -4.68,3.38 -2.14,0 -3.27,-0.76 -3.27,-2.14 0,-1.38 0.85,-2.2 2.76,-2.2 z m 0,-4.54 h -5.58 c -5.92,0 -9.83,2.08 -9.83,7.21 0,5.57 4.06,7.56 8.46,7.56 2.9,0.19 5.66,-1.29 7.1,-3.83 l -0.16,3.32 h 7.56 V 27.06 c 0,-7.56 -4.68,-10.88 -10.82,-10.88 -5.64,0 -8.17,1.75 -10.43,3.95 l 4.23,4.54 c 1.44,-1.45 3.42,-2.24 5.46,-2.2 2.53,0 3.89,1.24 4,4.01 m -32.91,8.08 c -3.21,0 -5.24,-2.14 -5.24,-5.92 0,-3.55 2.03,-5.75 5.24,-5.75 3.21,0 5.42,2.2 5.42,5.75 0,3.78 -2.15,5.92 -5.42,5.92 m -2.2,6.64 c 3.66,0 6.19,-1.46 7.56,-4 l -0.16,3.49 h 7.59 V 0 H 18.26 V 20.06 C 16.75,17.69 14.59,16.17 10.76,16.17 4.96,16.18 0,21.25 0,28.64 0,36.03 5.01,41.21 10.88,41.21"
           style="fill:#154481" /><path
           id="Trazado_2594"
           d="m 246.64,41.27 c 3.89,0 7.44,-2.65 7.44,-7.05 0,-3.03 -1.81,-5.75 -2.14,-6.42 -0.34,-0.76 -2.03,-3.16 -2.03,-5.25 0,-2.09 1.64,-3.55 2.77,-3.55 1.13,0 1.18,0.9 1.46,1.57 0.3,0.8 1.06,1.34 1.92,1.36 0.96,-0.05 1.73,-0.83 1.75,-1.8 0,-2.2 -2.31,-2.88 -4,-2.88 -3.79,0.1 -6.88,3.09 -7.1,6.88 -0.06,2.59 1.24,4.54 1.63,5.52 0.76,1.81 2.42,4.12 2.42,6.54 0.06,1.82 -1.34,3.35 -3.15,3.44 -1.41,0 -1.7,-0.62 -2.03,-1.58 -0.28,-1.05 -1.23,-1.79 -2.31,-1.8 -1.03,0.02 -1.86,0.83 -1.91,1.85 0,1.86 2.03,3.16 5.29,3.16 m -10.6,-21.53 c 1.24,0 1.8,1.01 1.8,2.14 0,4.17 -7.38,6.53 -9.36,6.37 0.45,-2.03 3.95,-8.51 7.56,-8.51 m -7.32,21.54 c 4.34,0 7.72,-3.72 9.13,-5.7 0.23,-0.17 0.23,-0.34 -0.05,-0.51 l -0.62,-0.51 c -0.23,-0.23 -0.39,-0.11 -0.51,0.05 -1.19,1.92 -3.67,4.01 -6.43,4.01 -1.79,-0.18 -3.09,-1.77 -2.93,-3.56 -0.05,-1.76 0.21,-3.52 0.76,-5.19 2.84,-0.24 5.61,-1.01 8.17,-2.27 3.16,-1.63 5.24,-4.54 5.24,-7.33 0,-1.67 -1.35,-3.03 -3.02,-3.03 -0.06,0 -0.12,0 -0.19,0 -2.71,0 -5.76,1.97 -7.56,3.78 -4.11,4.06 -7.21,9.97 -7.21,14.71 0,3.72 1.58,5.53 5.24,5.53 m -35.29,-4.32 c 0,-1.63 1.7,-6.25 3.9,-9.36 2.88,-4 7.04,-7.56 9.18,-7.56 1.02,0 1.92,0.67 1.92,2.42 -0.03,7.32 -8.09,16.89 -12.58,16.89 -1.24,0 -2.43,-0.17 -2.43,-2.42 m 7.26,-32.37 c 0.95,0 1.57,0.33 1.57,0.85 -0.03,0.53 -0.16,1.04 -0.39,1.51 -3.61,8.62 -7.5,17.65 -11.67,27.34 -0.47,1.03 -0.76,2.14 -0.84,3.27 -0.07,1.98 1.47,3.65 3.46,3.72 0,0 0,0 0,0 h 0.32 c 5.35,0 8.96,-2.54 11.95,-5.47 5.52,-5.51 7.41,-11.01 7.41,-14.23 0,-2.48 -1.13,-4.28 -4,-4.28 -3.1,0 -7.44,3.49 -10.2,6.99 l -0.33,-0.11 9.08,-20.47 c 0.23,-0.51 0.11,-1.01 -0.39,-1.01 h -7.15 c -0.34,0 -0.45,0.11 -0.57,0.45 l -0.33,0.9 c -0.11,0.34 0.05,0.57 0.51,0.57 l 1.58,-0.03 v 0 z m -27.8,34.04 c -1.47,-0.03 -2.63,-1.25 -2.6,-2.72 0,-0.05 0,-0.1 0,-0.15 0,-2.65 1.35,-6.05 3.27,-9.13 2.81,-4.54 5.8,-6.71 8.17,-6.71 1.54,-0.03 2.81,1.19 2.84,2.73 0,0.14 0,0.28 -0.02,0.42 0,3.72 -5.81,15.56 -11.67,15.56 m 0.86,2.7 c 8.17,0 13.08,-11.22 13.08,-17.4 0,-3.83 -2.27,-6.6 -6.05,-6.6 -7.5,0 -12.86,9.64 -12.86,16.74 0,4.29 2.71,7.28 5.81,7.28 m -31.01,8.39 c 0,-2.65 2.48,-4.79 7.1,-6.65 0.79,0.51 4.45,2.88 4.96,3.21 1.41,0.95 3.78,2.48 3.78,4.96 0,3.15 -3.21,4.54 -7.05,4.54 -3.84,0 -8.8,-2.14 -8.8,-6.05 m 10.15,-16.33 c -1.7,0 -2.66,-1.29 -2.66,-3.83 0,-4.23 2.88,-10.82 6.26,-10.82 1.51,0 2.53,1.19 2.53,3.78 0,4.06 -2.03,10.88 -6.14,10.88 m -2.45,24.09 c 11.05,0 12,-6.43 12,-7.33 0,-2.09 -0.9,-3.95 -4.17,-6.09 -3.67,-2.42 -6.37,-4.11 -7.33,-4.79 -0.52,-0.35 -0.87,-0.9 -0.96,-1.51 0,-0.95 1.86,-2.27 2.93,-2.7 0.54,-0.21 1.11,-0.34 1.69,-0.4 6.49,-1.13 8.06,-7.43 8.06,-10.14 -0.02,-1.07 -0.17,-2.13 -0.45,-3.16 0.42,-0.46 1.01,-0.73 1.63,-0.76 0.39,0 0.77,0.14 1.07,0.39 0.44,0.57 1.14,0.89 1.86,0.85 0.94,0.05 1.75,-0.67 1.8,-1.61 v -0.14 c -0.04,-1.25 -1.08,-2.24 -2.33,-2.2 h -0.03 c -1.79,0.13 -3.48,0.87 -4.8,2.09 -1.01,-1.67 -2.83,-2.68 -4.79,-2.65 -6.26,0 -9.98,6.53 -9.98,10.76 -0.12,2.89 1.67,5.53 4.4,6.48 -3.78,2.15 -4.8,3.1 -4.8,4.17 0,1.07 0.51,2.09 2.15,3.27 -2.77,1.19 -9.53,3.95 -9.53,8.12 0,4.17 5.7,7.38 11.56,7.38"
           style="fill:#154481" /><path
           id="Trazado_2596"
           d="m 136.63,40.93 c 1.83,0 3.31,-1.5 3.3,-3.33 -0.01,-1.83 -1.5,-3.31 -3.33,-3.3 -1.82,0 -3.29,1.48 -3.3,3.3 -0.03,1.8 1.4,3.29 3.2,3.33 v 0 c 0,0 0.12,0 0.12,0"
           style="fill:#cd0e2d" /><path
           id="Trazado_2597"
           d="m 214.08,40.93 c 1.83,0 3.31,-1.5 3.3,-3.33 -0.01,-1.83 -1.5,-3.31 -3.33,-3.3 -1.82,0 -3.29,1.48 -3.3,3.3 -0.03,1.8 1.4,3.29 3.2,3.33 h 0.12"
           style="fill:#cd0e2d" /></g><g
         id="potenciando_nuestra_economía_digital"
         style="isolation:isolate"><g
           style="isolation:isolate"
           id="g33"><path
             d="m 10.39,74.06 c 0,2.66 -1.84,4.39 -4.34,4.39 C 4.96,78.45 4,78.08 3.31,77.3 v 4.15 h -2 V 69.8 h 1.9 v 1.12 C 3.88,70.1 4.87,69.7 6.04,69.7 c 2.5,0 4.34,1.73 4.34,4.37 z m -2.03,0 c 0,-1.63 -1.09,-2.67 -2.53,-2.67 -1.44,0 -2.54,1.04 -2.54,2.67 0,1.63 1.1,2.67 2.54,2.67 1.44,0 2.53,-1.04 2.53,-2.67 z"
             style="fill:#154481"
             id="path1" /><path
             d="m 11.58,74.06 c 0,-2.56 1.92,-4.37 4.55,-4.37 2.63,0 4.56,1.81 4.56,4.37 0,2.56 -1.9,4.39 -4.56,4.39 -2.66,0 -4.55,-1.83 -4.55,-4.39 z m 7.09,0 c 0,-1.63 -1.09,-2.67 -2.54,-2.67 -1.45,0 -2.53,1.04 -2.53,2.67 0,1.63 1.09,2.67 2.53,2.67 1.44,0 2.54,-1.04 2.54,-2.67 z"
             style="fill:#154481"
             id="path2" /><path
             d="m 27.75,77.87 c -0.48,0.38 -1.2,0.58 -1.92,0.58 -1.87,0 -2.95,-0.99 -2.95,-2.88 v -4.11 h -1.41 v -1.6 h 1.41 v -1.95 h 2 v 1.95 h 2.29 v 1.6 h -2.29 v 4.07 c 0,0.83 0.42,1.28 1.18,1.28 0.42,0 0.82,-0.11 1.12,-0.35 l 0.56,1.42 z"
             style="fill:#154481"
             id="path3" /><path
             d="M 37.11,74.7 H 30.4 c 0.24,1.25 1.28,2.05 2.77,2.05 0.96,0 1.71,-0.3 2.32,-0.93 l 1.07,1.23 c -0.77,0.91 -1.97,1.39 -3.44,1.39 -2.87,0 -4.72,-1.84 -4.72,-4.39 0,-2.55 1.87,-4.37 4.42,-4.37 2.55,0 4.32,1.75 4.32,4.42 0,0.16 -0.02,0.4 -0.03,0.59 z m -6.72,-1.33 h 4.85 c -0.16,-1.23 -1.1,-2.08 -2.42,-2.08 -1.32,0 -2.24,0.83 -2.43,2.08 z"
             style="fill:#154481"
             id="path4" /><path
             d="m 47.48,73.43 v 4.9 h -2 v -4.64 c 0,-1.52 -0.75,-2.26 -2.03,-2.26 -1.42,0 -2.38,0.86 -2.38,2.58 v 4.32 h -2 v -8.55 h 1.9 v 1.1 c 0.66,-0.78 1.7,-1.2 2.95,-1.2 2.05,0 3.57,1.17 3.57,3.75 z"
             style="fill:#154481"
             id="path5" /><path
             d="m 49.39,74.06 c 0,-2.56 1.92,-4.37 4.63,-4.37 1.67,0 2.99,0.69 3.65,1.99 l -1.54,0.9 C 55.62,71.76 54.85,71.4 54,71.4 c -1.47,0 -2.59,1.02 -2.59,2.67 0,1.65 1.12,2.67 2.59,2.67 0.85,0 1.62,-0.37 2.13,-1.18 l 1.54,0.9 c -0.66,1.28 -1.98,2 -3.65,2 -2.71,0 -4.63,-1.83 -4.63,-4.39 z"
             style="fill:#154481"
             id="path6" /><path
             d="m 59.12,67.17 c 0,-0.67 0.54,-1.2 1.28,-1.2 0.74,0 1.28,0.5 1.28,1.15 0,0.7 -0.53,1.25 -1.28,1.25 -0.75,0 -1.28,-0.53 -1.28,-1.2 z m 0.27,2.61 h 2 v 8.55 h -2 z"
             style="fill:#154481"
             id="path7" /><path
             d="m 71.17,73.32 v 5.01 h -1.89 v -1.04 c -0.48,0.74 -1.41,1.15 -2.69,1.15 -1.95,0 -3.19,-1.07 -3.19,-2.56 0,-1.49 0.96,-2.54 3.55,-2.54 h 2.21 v -0.13 c 0,-1.17 -0.7,-1.86 -2.13,-1.86 -0.96,0 -1.95,0.32 -2.59,0.85 l -0.78,-1.46 c 0.91,-0.7 2.24,-1.06 3.62,-1.06 2.47,0 3.89,1.17 3.89,3.63 z m -2,2.34 v -0.99 h -2.06 c -1.36,0 -1.73,0.51 -1.73,1.14 0,0.72 0.61,1.18 1.63,1.18 1.02,0 1.82,-0.45 2.16,-1.33 z"
             style="fill:#154481"
             id="path8" /><path
             d="m 82.15,73.43 v 4.9 h -2 v -4.64 c 0,-1.52 -0.75,-2.26 -2.03,-2.26 -1.42,0 -2.38,0.86 -2.38,2.58 v 4.32 h -2 v -8.55 h 1.9 v 1.1 c 0.66,-0.78 1.7,-1.2 2.95,-1.2 2.05,0 3.57,1.17 3.57,3.75 z"
             style="fill:#154481"
             id="path9" /><path
             d="m 93.14,66.45 v 11.88 h -1.92 v -1.1 c -0.67,0.82 -1.66,1.22 -2.83,1.22 -2.48,0 -4.32,-1.73 -4.32,-4.39 0,-2.66 1.84,-4.37 4.32,-4.37 1.1,0 2.08,0.37 2.75,1.15 v -4.39 z m -1.97,7.61 c 0,-1.63 -1.1,-2.67 -2.55,-2.67 -1.45,0 -2.54,1.04 -2.54,2.67 0,1.63 1.1,2.67 2.54,2.67 1.44,0 2.55,-1.04 2.55,-2.67 z"
             style="fill:#154481"
             id="path10" /><path
             d="m 95.06,74.06 c 0,-2.56 1.92,-4.37 4.55,-4.37 2.63,0 4.56,1.81 4.56,4.37 0,2.56 -1.9,4.39 -4.56,4.39 -2.66,0 -4.55,-1.83 -4.55,-4.39 z m 7.09,0 c 0,-1.63 -1.09,-2.67 -2.54,-2.67 -1.45,0 -2.53,1.04 -2.53,2.67 0,1.63 1.09,2.67 2.53,2.67 1.44,0 2.54,-1.04 2.54,-2.67 z"
             style="fill:#154481"
             id="path11" /><path
             d="m 118.91,73.43 v 4.9 h -2 v -4.64 c 0,-1.52 -0.75,-2.26 -2.03,-2.26 -1.42,0 -2.38,0.86 -2.38,2.58 v 4.32 h -2 v -8.55 h 1.9 v 1.1 c 0.66,-0.78 1.7,-1.2 2.95,-1.2 2.05,0 3.57,1.17 3.57,3.75 z"
             style="fill:#154481"
             id="path12" /><path
             d="m 129.73,69.78 v 8.55 h -1.9 v -1.09 c -0.64,0.79 -1.65,1.2 -2.75,1.2 -2.19,0 -3.68,-1.2 -3.68,-3.78 v -4.88 h 2 v 4.61 c 0,1.55 0.74,2.29 2,2.29 1.39,0 2.34,-0.86 2.34,-2.58 v -4.32 h 2 z"
             style="fill:#154481"
             id="path13" /><path
             d="m 140.35,74.7 h -6.71 c 0.24,1.25 1.28,2.05 2.77,2.05 0.96,0 1.71,-0.3 2.32,-0.93 l 1.07,1.23 c -0.77,0.91 -1.97,1.39 -3.44,1.39 -2.87,0 -4.72,-1.84 -4.72,-4.39 0,-2.55 1.87,-4.37 4.42,-4.37 2.55,0 4.32,1.75 4.32,4.42 0,0.16 -0.02,0.4 -0.03,0.59 z m -6.72,-1.33 h 4.85 c -0.16,-1.23 -1.1,-2.08 -2.42,-2.08 -1.32,0 -2.24,0.83 -2.43,2.08 z"
             style="fill:#154481"
             id="path14" /><path
             d="m 141.33,77.48 0.77,-1.52 c 0.75,0.5 1.9,0.85 2.98,0.85 1.26,0 1.79,-0.35 1.79,-0.94 0,-1.63 -5.28,-0.1 -5.28,-3.51 0,-1.62 1.46,-2.67 3.76,-2.67 1.14,0 2.43,0.27 3.2,0.74 l -0.77,1.52 c -0.82,-0.48 -1.63,-0.64 -2.45,-0.64 -1.22,0 -1.79,0.4 -1.79,0.96 0,1.73 5.28,0.19 5.28,3.54 0,1.6 -1.47,2.64 -3.87,2.64 -1.42,0 -2.85,-0.42 -3.62,-0.96 z"
             style="fill:#154481"
             id="path15" /><path
             d="m 155.68,77.87 c -0.48,0.38 -1.2,0.58 -1.92,0.58 -1.87,0 -2.95,-0.99 -2.95,-2.88 v -4.11 h -1.41 v -1.6 h 1.41 v -1.95 h 2 v 1.95 h 2.29 v 1.6 h -2.29 v 4.07 c 0,0.83 0.42,1.28 1.18,1.28 0.42,0 0.82,-0.11 1.12,-0.35 l 0.56,1.42 z"
             style="fill:#154481"
             id="path16" /><path
             d="m 162.27,69.69 v 1.91 c -0.18,-0.03 -0.32,-0.05 -0.46,-0.05 -1.52,0 -2.48,0.9 -2.48,2.64 v 4.15 h -2 v -8.55 h 1.9 v 1.25 c 0.58,-0.9 1.62,-1.34 3.04,-1.34 z"
             style="fill:#154481"
             id="path17" /><path
             d="m 171.07,73.32 v 5.01 h -1.89 v -1.04 c -0.48,0.74 -1.41,1.15 -2.69,1.15 -1.95,0 -3.19,-1.07 -3.19,-2.56 0,-1.49 0.96,-2.54 3.55,-2.54 h 2.21 v -0.13 c 0,-1.17 -0.7,-1.86 -2.13,-1.86 -0.96,0 -1.95,0.32 -2.59,0.85 l -0.78,-1.46 c 0.91,-0.7 2.24,-1.06 3.62,-1.06 2.47,0 3.89,1.17 3.89,3.63 z m -2,2.34 v -0.99 h -2.06 c -1.36,0 -1.73,0.51 -1.73,1.14 0,0.72 0.61,1.18 1.63,1.18 1.02,0 1.82,-0.45 2.16,-1.33 z"
             style="fill:#154481"
             id="path18" /><path
             d="m 186.05,74.7 h -6.71 c 0.24,1.25 1.28,2.05 2.77,2.05 0.96,0 1.71,-0.3 2.32,-0.93 l 1.07,1.23 c -0.77,0.91 -1.97,1.39 -3.44,1.39 -2.87,0 -4.72,-1.84 -4.72,-4.39 0,-2.55 1.87,-4.37 4.42,-4.37 2.55,0 4.32,1.75 4.32,4.42 0,0.16 -0.02,0.4 -0.03,0.59 z m -6.72,-1.33 h 4.85 c -0.16,-1.23 -1.1,-2.08 -2.42,-2.08 -1.32,0 -2.24,0.83 -2.43,2.08 z"
             style="fill:#154481"
             id="path19" /><path
             d="m 187.29,74.06 c 0,-2.56 1.92,-4.37 4.63,-4.37 1.66,0 2.99,0.69 3.65,1.99 l -1.54,0.9 c -0.51,-0.82 -1.28,-1.18 -2.13,-1.18 -1.47,0 -2.59,1.02 -2.59,2.67 0,1.65 1.12,2.67 2.59,2.67 0.85,0 1.62,-0.37 2.13,-1.18 l 1.54,0.9 c -0.66,1.28 -1.99,2 -3.65,2 -2.71,0 -4.63,-1.83 -4.63,-4.39 z"
             style="fill:#154481"
             id="path20" /><path
             d="m 196.46,74.06 c 0,-2.56 1.92,-4.37 4.55,-4.37 2.63,0 4.56,1.81 4.56,4.37 0,2.56 -1.91,4.39 -4.56,4.39 -2.65,0 -4.55,-1.83 -4.55,-4.39 z m 7.09,0 c 0,-1.63 -1.09,-2.67 -2.54,-2.67 -1.45,0 -2.53,1.04 -2.53,2.67 0,1.63 1.09,2.67 2.53,2.67 1.44,0 2.54,-1.04 2.54,-2.67 z"
             style="fill:#154481"
             id="path21" /><path
             d="m 215.91,73.43 v 4.9 h -2 v -4.64 c 0,-1.52 -0.75,-2.26 -2.03,-2.26 -1.42,0 -2.38,0.86 -2.38,2.58 v 4.32 h -2 v -8.55 h 1.9 v 1.1 c 0.66,-0.78 1.7,-1.2 2.95,-1.2 2.05,0 3.57,1.17 3.57,3.75 z"
             style="fill:#154481"
             id="path22" /><path
             d="m 217.82,74.06 c 0,-2.56 1.92,-4.37 4.54,-4.37 2.62,0 4.56,1.81 4.56,4.37 0,2.56 -1.91,4.39 -4.56,4.39 -2.65,0 -4.54,-1.83 -4.54,-4.39 z m 7.09,0 c 0,-1.63 -1.09,-2.67 -2.54,-2.67 -1.45,0 -2.53,1.04 -2.53,2.67 0,1.63 1.09,2.67 2.53,2.67 1.44,0 2.54,-1.04 2.54,-2.67 z"
             style="fill:#154481"
             id="path23" /><path
             d="m 243.14,73.43 v 4.9 h -2 v -4.64 c 0,-1.52 -0.7,-2.26 -1.92,-2.26 -1.31,0 -2.22,0.86 -2.22,2.56 v 4.34 h -2 v -4.64 c 0,-1.52 -0.7,-2.26 -1.92,-2.26 -1.33,0 -2.22,0.86 -2.22,2.56 v 4.34 h -2 v -8.55 h 1.9 v 1.09 c 0.64,-0.77 1.63,-1.18 2.8,-1.18 1.25,0 2.29,0.46 2.88,1.42 0.69,-0.88 1.84,-1.42 3.2,-1.42 2.06,0 3.5,1.17 3.5,3.75 z"
             style="fill:#154481"
             id="path24" /><path
             d="m 247.52,66.42 h 2.35 l -2.79,2.19 h -1.73 l 2.16,-2.19 z m -1.83,3.36 h 2 v 8.55 h -2 z"
             style="fill:#154481"
             id="path25" /><path
             d="m 257.47,73.32 v 5.01 h -1.89 v -1.04 c -0.48,0.74 -1.41,1.15 -2.69,1.15 -1.95,0 -3.19,-1.07 -3.19,-2.56 0,-1.49 0.96,-2.54 3.55,-2.54 h 2.21 v -0.13 c 0,-1.17 -0.7,-1.86 -2.13,-1.86 -0.96,0 -1.95,0.32 -2.59,0.85 l -0.79,-1.46 c 0.91,-0.7 2.24,-1.06 3.62,-1.06 2.47,0 3.89,1.17 3.89,3.63 z m -2,2.34 v -0.99 h -2.07 c -1.36,0 -1.73,0.51 -1.73,1.14 0,0.72 0.61,1.18 1.63,1.18 1.02,0 1.82,-0.45 2.16,-1.33 z"
             style="fill:#154481"
             id="path26" /><path
             d="m 272.82,66.45 v 11.88 h -1.92 v -1.1 c -0.67,0.82 -1.67,1.22 -2.83,1.22 -2.48,0 -4.32,-1.73 -4.32,-4.39 0,-2.66 1.84,-4.37 4.32,-4.37 1.11,0 2.08,0.37 2.75,1.15 v -4.39 z m -1.97,7.61 c 0,-1.63 -1.1,-2.67 -2.54,-2.67 -1.44,0 -2.54,1.04 -2.54,2.67 0,1.63 1.1,2.67 2.54,2.67 1.44,0 2.54,-1.04 2.54,-2.67 z"
             style="fill:#154481"
             id="path27" /><path
             d="m 275.17,67.17 c 0,-0.67 0.54,-1.2 1.28,-1.2 0.74,0 1.28,0.5 1.28,1.15 0,0.7 -0.53,1.25 -1.28,1.25 -0.75,0 -1.28,-0.53 -1.28,-1.2 z m 0.27,2.61 h 2 v 8.55 h -2 z"
             style="fill:#154481"
             id="path28" /><path
             d="m 288.54,69.78 v 7.25 c 0,3.11 -1.62,4.51 -4.61,4.51 -1.6,0 -3.18,-0.42 -4.16,-1.22 l 0.9,-1.5 c 0.75,0.62 1.97,1.02 3.15,1.02 1.89,0 2.72,-0.86 2.72,-2.59 V 76.8 c -0.7,0.77 -1.71,1.14 -2.87,1.14 -2.45,0 -4.32,-1.67 -4.32,-4.15 0,-2.48 1.87,-4.11 4.32,-4.11 1.2,0 2.26,0.38 2.96,1.23 v -1.14 h 1.91 z m -1.96,4.02 c 0,-1.44 -1.09,-2.42 -2.59,-2.42 -1.5,0 -2.61,0.98 -2.61,2.42 0,1.44 1.09,2.45 2.61,2.45 1.52,0 2.59,-0.99 2.59,-2.45 z"
             style="fill:#154481"
             id="path29" /><path
             d="m 290.89,67.17 c 0,-0.67 0.54,-1.2 1.28,-1.2 0.74,0 1.28,0.5 1.28,1.15 0,0.7 -0.53,1.25 -1.28,1.25 -0.75,0 -1.28,-0.53 -1.28,-1.2 z m 0.27,2.61 h 2 v 8.55 h -2 z"
             style="fill:#154481"
             id="path30" /><path
             d="m 300.93,77.87 c -0.48,0.38 -1.2,0.58 -1.92,0.58 -1.87,0 -2.95,-0.99 -2.95,-2.88 v -4.11 h -1.41 v -1.6 h 1.41 v -1.95 h 2 v 1.95 h 2.29 v 1.6 h -2.29 v 4.07 c 0,0.83 0.42,1.28 1.19,1.28 0.42,0 0.82,-0.11 1.12,-0.35 l 0.56,1.42 z"
             style="fill:#154481"
             id="path31" /><path
             d="m 309.73,73.32 v 5.01 h -1.89 v -1.04 c -0.48,0.74 -1.41,1.15 -2.69,1.15 -1.95,0 -3.19,-1.07 -3.19,-2.56 0,-1.49 0.96,-2.54 3.55,-2.54 h 2.21 v -0.13 c 0,-1.17 -0.71,-1.86 -2.13,-1.86 -0.96,0 -1.95,0.32 -2.59,0.85 l -0.78,-1.46 c 0.91,-0.7 2.24,-1.06 3.62,-1.06 2.46,0 3.89,1.17 3.89,3.63 z m -2,2.34 v -0.99 h -2.06 c -1.36,0 -1.73,0.51 -1.73,1.14 0,0.72 0.61,1.18 1.63,1.18 1.02,0 1.83,-0.45 2.16,-1.33 z"
             style="fill:#154481"
             id="path32" /><path
             d="m 312.28,66.45 h 2 v 11.88 h -2 z"
             style="fill:#154481"
             id="path33" /></g></g></g></g></svg>
