<?xml version="1.0" encoding="UTF-8"?><svg id="Capa_1" xmlns="http://www.w3.org/2000/svg" viewBox="0 0 317.03 82.33"><g id="datos_gob"><g id="Capa_1-2"><path id="Trazado_2593" d="M119.67,41.2c7.56,0,9.87-3.61,9.87-8,0-5.08-4.4-6.71-7.9-7.5-3.27-.76-4.79-.91-4.79-2.27,0-.96.84-1.41,2.59-1.41,1.7.05,3.33.69,4.62,1.81l4.05-4.34c-2.32-2.28-5.49-3.49-8.74-3.33-5.13,0-9.3,2.2-9.3,7.61,0,5.02,3.67,6.81,6.93,7.67,3.89,1.01,5.42,1.01,5.42,2.31,0,1.01-.76,1.46-3.27,1.46-2.25-.03-4.39-.94-5.98-2.53l-4.45,3.95c2.09,2.48,5.35,4.54,10.93,4.54M92.44,34.74c-3.38,0-5.47-2.48-5.47-6.05s2.09-6.05,5.47-6.05,5.42,2.42,5.42,6.05-2.03,6.05-5.42,6.05M92.44,41.16c7.44,0,13.19-5.18,13.19-12.46s-5.75-12.57-13.19-12.57-13.24,5.28-13.24,12.6,5.8,12.46,13.24,12.46M69.75,41.31c2.43.09,4.81-.68,6.71-2.19l-2.88-5.29c-.75.61-1.68.96-2.65,1.01-1.18,0-1.97-.51-1.97-2.93v-8.91h6.15v-6.31h-6.17V4.18h-7.56v12.51h-3.56v6.31h3.56v8.68c0,7.21,3.49,9.64,8.32,9.64M46,30.95v.96c0,2.03-1.58,3.38-4.68,3.38-2.14,0-3.27-.76-3.27-2.14s.85-2.2,2.76-2.2h5.19ZM46,26.41h-5.58c-5.92,0-9.83,2.08-9.83,7.21,0,5.57,4.06,7.56,8.46,7.56,2.9.19,5.66-1.29,7.1-3.83l-.16,3.32h7.56v-13.61c0-7.56-4.68-10.88-10.82-10.88-5.64,0-8.17,1.75-10.43,3.95l4.23,4.54c1.44-1.45,3.42-2.24,5.46-2.2,2.53,0,3.89,1.24,4,4.01M13.08,34.56c-3.21,0-5.24-2.14-5.24-5.92,0-3.55,2.03-5.75,5.24-5.75s5.42,2.2,5.42,5.75c0,3.78-2.15,5.92-5.42,5.92M10.88,41.2c3.66,0,6.19-1.46,7.56-4l-.16,3.49h7.59V0h-7.61v20.06c-1.51-2.37-3.67-3.89-7.5-3.89C4.96,16.18,0,21.25,0,28.64s5.01,12.57,10.88,12.57" style="fill:#154481;"/><path id="Trazado_2594" d="M246.64,41.27c3.89,0,7.44-2.65,7.44-7.05,0-3.03-1.81-5.75-2.14-6.42-.34-.76-2.03-3.16-2.03-5.25s1.64-3.55,2.77-3.55,1.18.9,1.46,1.57c.3.8,1.06,1.34,1.92,1.36.96-.05,1.73-.83,1.75-1.8,0-2.2-2.31-2.88-4-2.88-3.79.1-6.88,3.09-7.1,6.88-.06,2.59,1.24,4.54,1.63,5.52.76,1.81,2.42,4.12,2.42,6.54.06,1.82-1.34,3.35-3.15,3.44-1.41,0-1.7-.62-2.03-1.58-.28-1.05-1.23-1.79-2.31-1.8-1.03.02-1.86.83-1.91,1.85,0,1.86,2.03,3.16,5.29,3.16M236.05,19.73c1.24,0,1.8,1.01,1.8,2.14,0,4.17-7.38,6.53-9.36,6.37.45-2.03,3.95-8.51,7.56-8.51M228.73,41.27c4.34,0,7.72-3.72,9.13-5.7.23-.17.23-.34-.05-.51l-.62-.51c-.23-.23-.39-.11-.51.05-1.19,1.92-3.67,4.01-6.43,4.01-1.79-.18-3.09-1.77-2.93-3.56-.05-1.76.21-3.52.76-5.19,2.84-.24,5.61-1.01,8.17-2.27,3.16-1.63,5.24-4.54,5.24-7.33,0-1.67-1.35-3.03-3.02-3.03-.06,0-.12,0-.19,0-2.71,0-5.76,1.97-7.56,3.78-4.11,4.06-7.21,9.97-7.21,14.71,0,3.72,1.58,5.53,5.24,5.53M193.46,36.93c0-1.63,1.7-6.25,3.9-9.36,2.88-4,7.04-7.56,9.18-7.56,1.02,0,1.92.67,1.92,2.42-.03,7.32-8.09,16.89-12.58,16.89-1.24,0-2.43-.17-2.43-2.42M200.71,4.53c.95,0,1.57.33,1.57.85-.03.53-.16,1.04-.39,1.51-3.61,8.62-7.5,17.65-11.67,27.34-.47,1.03-.76,2.14-.84,3.27-.07,1.98,1.47,3.65,3.46,3.72,0,0,0,0,0,0h.32c5.35,0,8.96-2.54,11.95-5.47,5.52-5.51,7.41-11.01,7.41-14.23,0-2.48-1.13-4.28-4-4.28-3.1,0-7.44,3.49-10.2,6.99l-.33-.11,9.08-20.47c.23-.51.11-1.01-.39-1.01h-7.15c-.34,0-.45.11-.57.45l-.33.9c-.11.34.05.57.51.57l1.58-.03h0ZM172.91,38.57c-1.47-.03-2.63-1.25-2.6-2.72,0-.05,0-.1,0-.15,0-2.65,1.35-6.05,3.27-9.13,2.81-4.54,5.8-6.71,8.17-6.71,1.54-.03,2.81,1.19,2.84,2.73,0,.14,0,.28-.02.42,0,3.72-5.81,15.56-11.67,15.56M173.76,41.27c8.17,0,13.08-11.22,13.08-17.4,0-3.83-2.27-6.6-6.05-6.6-7.5,0-12.86,9.64-12.86,16.74,0,4.29,2.71,7.28,5.81,7.28M142.73,49.68c0-2.65,2.48-4.79,7.1-6.65.79.51,4.45,2.88,4.96,3.21,1.41.95,3.78,2.48,3.78,4.96,0,3.15-3.21,4.54-7.05,4.54s-8.8-2.14-8.8-6.05M152.87,33.36c-1.7,0-2.66-1.29-2.66-3.83,0-4.23,2.88-10.82,6.26-10.82,1.51,0,2.53,1.19,2.53,3.78,0,4.06-2.03,10.88-6.14,10.88M150.41,57.46c11.05,0,12-6.43,12-7.33,0-2.09-.9-3.95-4.17-6.09-3.67-2.42-6.37-4.11-7.33-4.79-.52-.35-.87-.9-.96-1.51,0-.95,1.86-2.27,2.93-2.7.54-.21,1.11-.34,1.69-.4,6.49-1.13,8.06-7.43,8.06-10.14-.02-1.07-.17-2.13-.45-3.16.42-.46,1.01-.73,1.63-.76.39,0,.77.14,1.07.39.44.57,1.14.89,1.86.85.94.05,1.75-.67,1.8-1.61v-.14c-.04-1.25-1.08-2.24-2.33-2.2h-.03c-1.79.13-3.48.87-4.8,2.09-1.01-1.67-2.83-2.68-4.79-2.65-6.26,0-9.98,6.53-9.98,10.76-.12,2.89,1.67,5.53,4.4,6.48-3.78,2.15-4.8,3.1-4.8,4.17s.51,2.09,2.15,3.27c-2.77,1.19-9.53,3.95-9.53,8.12s5.7,7.38,11.56,7.38" style="fill:#154481;"/><path id="Trazado_2596" d="M136.63,40.93c1.83,0,3.31-1.5,3.3-3.33s-1.5-3.31-3.33-3.3c-1.82,0-3.29,1.48-3.3,3.3-.03,1.8,1.4,3.29,3.2,3.33h0s.12,0,.12,0" style="fill:#cd0e2d;"/><path id="Trazado_2597" d="M214.08,40.93c1.83,0,3.31-1.5,3.3-3.33s-1.5-3.31-3.33-3.3c-1.82,0-3.29,1.48-3.3,3.3-.03,1.8,1.4,3.29,3.2,3.33h.12" style="fill:#cd0e2d;"/></g><g id="potenciando_nuestra_economía_digital" style="isolation:isolate;"><g style="isolation:isolate;"><path d="M10.39,74.06c0,2.66-1.84,4.39-4.34,4.39-1.09,0-2.05-.37-2.74-1.15v4.15H1.31v-11.65h1.9v1.12c.67-.82,1.66-1.22,2.83-1.22,2.5,0,4.34,1.73,4.34,4.37ZM8.36,74.06c0-1.63-1.09-2.67-2.53-2.67s-2.54,1.04-2.54,2.67,1.1,2.67,2.54,2.67,2.53-1.04,2.53-2.67Z" style="fill:#154481;"/><path d="M11.58,74.06c0-2.56,1.92-4.37,4.55-4.37s4.56,1.81,4.56,4.37-1.9,4.39-4.56,4.39-4.55-1.83-4.55-4.39ZM18.67,74.06c0-1.63-1.09-2.67-2.54-2.67s-2.53,1.04-2.53,2.67,1.09,2.67,2.53,2.67,2.54-1.04,2.54-2.67Z" style="fill:#154481;"/><path d="M27.75,77.87c-.48.38-1.2.58-1.92.58-1.87,0-2.95-.99-2.95-2.88v-4.11h-1.41v-1.6h1.41v-1.95h2v1.95h2.29v1.6h-2.29v4.07c0,.83.42,1.28,1.18,1.28.42,0,.82-.11,1.12-.35l.56,1.42Z" style="fill:#154481;"/><path d="M37.11,74.7h-6.71c.24,1.25,1.28,2.05,2.77,2.05.96,0,1.71-.3,2.32-.93l1.07,1.23c-.77.91-1.97,1.39-3.44,1.39-2.87,0-4.72-1.84-4.72-4.39s1.87-4.37,4.42-4.37,4.32,1.75,4.32,4.42c0,.16-.02.4-.03.59ZM30.39,73.37h4.85c-.16-1.23-1.1-2.08-2.42-2.08s-2.24.83-2.43,2.08Z" style="fill:#154481;"/><path d="M47.48,73.43v4.9h-2v-4.64c0-1.52-.75-2.26-2.03-2.26-1.42,0-2.38.86-2.38,2.58v4.32h-2v-8.55h1.9v1.1c.66-.78,1.7-1.2,2.95-1.2,2.05,0,3.57,1.17,3.57,3.75Z" style="fill:#154481;"/><path d="M49.39,74.06c0-2.56,1.92-4.37,4.63-4.37,1.67,0,2.99.69,3.65,1.99l-1.54.9c-.51-.82-1.28-1.18-2.13-1.18-1.47,0-2.59,1.02-2.59,2.67s1.12,2.67,2.59,2.67c.85,0,1.62-.37,2.13-1.18l1.54.9c-.66,1.28-1.98,2-3.65,2-2.71,0-4.63-1.83-4.63-4.39Z" style="fill:#154481;"/><path d="M59.12,67.17c0-.67.54-1.2,1.28-1.2s1.28.5,1.28,1.15c0,.7-.53,1.25-1.28,1.25s-1.28-.53-1.28-1.2ZM59.39,69.78h2v8.55h-2v-8.55Z" style="fill:#154481;"/><path d="M71.17,73.32v5.01h-1.89v-1.04c-.48.74-1.41,1.15-2.69,1.15-1.95,0-3.19-1.07-3.19-2.56s.96-2.54,3.55-2.54h2.21v-.13c0-1.17-.7-1.86-2.13-1.86-.96,0-1.95.32-2.59.85l-.78-1.46c.91-.7,2.24-1.06,3.62-1.06,2.47,0,3.89,1.17,3.89,3.63ZM69.17,75.66v-.99h-2.06c-1.36,0-1.73.51-1.73,1.14,0,.72.61,1.18,1.63,1.18s1.82-.45,2.16-1.33Z" style="fill:#154481;"/><path d="M82.15,73.43v4.9h-2v-4.64c0-1.52-.75-2.26-2.03-2.26-1.42,0-2.38.86-2.38,2.58v4.32h-2v-8.55h1.9v1.1c.66-.78,1.7-1.2,2.95-1.2,2.05,0,3.57,1.17,3.57,3.75Z" style="fill:#154481;"/><path d="M93.14,66.45v11.88h-1.92v-1.1c-.67.82-1.66,1.22-2.83,1.22-2.48,0-4.32-1.73-4.32-4.39s1.84-4.37,4.32-4.37c1.1,0,2.08.37,2.75,1.15v-4.39h2ZM91.17,74.06c0-1.63-1.1-2.67-2.55-2.67s-2.54,1.04-2.54,2.67,1.1,2.67,2.54,2.67,2.55-1.04,2.55-2.67Z" style="fill:#154481;"/><path d="M95.06,74.06c0-2.56,1.92-4.37,4.55-4.37s4.56,1.81,4.56,4.37-1.9,4.39-4.56,4.39-4.55-1.83-4.55-4.39ZM102.15,74.06c0-1.63-1.09-2.67-2.54-2.67s-2.53,1.04-2.53,2.67,1.09,2.67,2.53,2.67,2.54-1.04,2.54-2.67Z" style="fill:#154481;"/><path d="M118.91,73.43v4.9h-2v-4.64c0-1.52-.75-2.26-2.03-2.26-1.42,0-2.38.86-2.38,2.58v4.32h-2v-8.55h1.9v1.1c.66-.78,1.7-1.2,2.95-1.2,2.05,0,3.57,1.17,3.57,3.75Z" style="fill:#154481;"/><path d="M129.73,69.78v8.55h-1.9v-1.09c-.64.79-1.65,1.2-2.75,1.2-2.19,0-3.68-1.2-3.68-3.78v-4.88h2v4.61c0,1.55.74,2.29,2,2.29,1.39,0,2.34-.86,2.34-2.58v-4.32h2Z" style="fill:#154481;"/><path d="M140.35,74.7h-6.71c.24,1.25,1.28,2.05,2.77,2.05.96,0,1.71-.3,2.32-.93l1.07,1.23c-.77.91-1.97,1.39-3.44,1.39-2.87,0-4.72-1.84-4.72-4.39s1.87-4.37,4.42-4.37,4.32,1.75,4.32,4.42c0,.16-.02.4-.03.59ZM133.63,73.37h4.85c-.16-1.23-1.1-2.08-2.42-2.08s-2.24.83-2.43,2.08Z" style="fill:#154481;"/><path d="M141.33,77.48l.77-1.52c.75.5,1.9.85,2.98.85,1.26,0,1.79-.35,1.79-.94,0-1.63-5.28-.1-5.28-3.51,0-1.62,1.46-2.67,3.76-2.67,1.14,0,2.43.27,3.2.74l-.77,1.52c-.82-.48-1.63-.64-2.45-.64-1.22,0-1.79.4-1.79.96,0,1.73,5.28.19,5.28,3.54,0,1.6-1.47,2.64-3.87,2.64-1.42,0-2.85-.42-3.62-.96Z" style="fill:#154481;"/><path d="M155.68,77.87c-.48.38-1.2.58-1.92.58-1.87,0-2.95-.99-2.95-2.88v-4.11h-1.41v-1.6h1.41v-1.95h2v1.95h2.29v1.6h-2.29v4.07c0,.83.42,1.28,1.18,1.28.42,0,.82-.11,1.12-.35l.56,1.42Z" style="fill:#154481;"/><path d="M162.27,69.69v1.91c-.18-.03-.32-.05-.46-.05-1.52,0-2.48.9-2.48,2.64v4.15h-2v-8.55h1.9v1.25c.58-.9,1.62-1.34,3.04-1.34Z" style="fill:#154481;"/><path d="M171.07,73.32v5.01h-1.89v-1.04c-.48.74-1.41,1.15-2.69,1.15-1.95,0-3.19-1.07-3.19-2.56s.96-2.54,3.55-2.54h2.21v-.13c0-1.17-.7-1.86-2.13-1.86-.96,0-1.95.32-2.59.85l-.78-1.46c.91-.7,2.24-1.06,3.62-1.06,2.47,0,3.89,1.17,3.89,3.63ZM169.07,75.66v-.99h-2.06c-1.36,0-1.73.51-1.73,1.14,0,.72.61,1.18,1.63,1.18s1.82-.45,2.16-1.33Z" style="fill:#154481;"/><path d="M186.05,74.7h-6.71c.24,1.25,1.28,2.05,2.77,2.05.96,0,1.71-.3,2.32-.93l1.07,1.23c-.77.91-1.97,1.39-3.44,1.39-2.87,0-4.72-1.84-4.72-4.39s1.87-4.37,4.42-4.37,4.32,1.75,4.32,4.42c0,.16-.02.4-.03.59ZM179.33,73.37h4.85c-.16-1.23-1.1-2.08-2.42-2.08s-2.24.83-2.43,2.08Z" style="fill:#154481;"/><path d="M187.29,74.06c0-2.56,1.92-4.37,4.63-4.37,1.66,0,2.99.69,3.65,1.99l-1.54.9c-.51-.82-1.28-1.18-2.13-1.18-1.47,0-2.59,1.02-2.59,2.67s1.12,2.67,2.59,2.67c.85,0,1.62-.37,2.13-1.18l1.54.9c-.66,1.28-1.99,2-3.65,2-2.71,0-4.63-1.83-4.63-4.39Z" style="fill:#154481;"/><path d="M196.46,74.06c0-2.56,1.92-4.37,4.55-4.37s4.56,1.81,4.56,4.37-1.91,4.39-4.56,4.39-4.55-1.83-4.55-4.39ZM203.55,74.06c0-1.63-1.09-2.67-2.54-2.67s-2.53,1.04-2.53,2.67,1.09,2.67,2.53,2.67,2.54-1.04,2.54-2.67Z" style="fill:#154481;"/><path d="M215.91,73.43v4.9h-2v-4.64c0-1.52-.75-2.26-2.03-2.26-1.42,0-2.38.86-2.38,2.58v4.32h-2v-8.55h1.9v1.1c.66-.78,1.7-1.2,2.95-1.2,2.05,0,3.57,1.17,3.57,3.75Z" style="fill:#154481;"/><path d="M217.82,74.06c0-2.56,1.92-4.37,4.54-4.37s4.56,1.81,4.56,4.37-1.91,4.39-4.56,4.39-4.54-1.83-4.54-4.39ZM224.91,74.06c0-1.63-1.09-2.67-2.54-2.67s-2.53,1.04-2.53,2.67,1.09,2.67,2.53,2.67,2.54-1.04,2.54-2.67Z" style="fill:#154481;"/><path d="M243.14,73.43v4.9h-2v-4.64c0-1.52-.7-2.26-1.92-2.26-1.31,0-2.22.86-2.22,2.56v4.34h-2v-4.64c0-1.52-.7-2.26-1.92-2.26-1.33,0-2.22.86-2.22,2.56v4.34h-2v-8.55h1.9v1.09c.64-.77,1.63-1.18,2.8-1.18,1.25,0,2.29.46,2.88,1.42.69-.88,1.84-1.42,3.2-1.42,2.06,0,3.5,1.17,3.5,3.75Z" style="fill:#154481;"/><path d="M247.52,66.42h2.35l-2.79,2.19h-1.73l2.16-2.19ZM245.69,69.78h2v8.55h-2v-8.55Z" style="fill:#154481;"/><path d="M257.47,73.32v5.01h-1.89v-1.04c-.48.74-1.41,1.15-2.69,1.15-1.95,0-3.19-1.07-3.19-2.56s.96-2.54,3.55-2.54h2.21v-.13c0-1.17-.7-1.86-2.13-1.86-.96,0-1.95.32-2.59.85l-.79-1.46c.91-.7,2.24-1.06,3.62-1.06,2.47,0,3.89,1.17,3.89,3.63ZM255.47,75.66v-.99h-2.07c-1.36,0-1.73.51-1.73,1.14,0,.72.61,1.18,1.63,1.18s1.82-.45,2.16-1.33Z" style="fill:#154481;"/><path d="M272.82,66.45v11.88h-1.92v-1.1c-.67.82-1.67,1.22-2.83,1.22-2.48,0-4.32-1.73-4.32-4.39s1.84-4.37,4.32-4.37c1.11,0,2.08.37,2.75,1.15v-4.39h2ZM270.85,74.06c0-1.63-1.1-2.67-2.54-2.67s-2.54,1.04-2.54,2.67,1.1,2.67,2.54,2.67,2.54-1.04,2.54-2.67Z" style="fill:#154481;"/><path d="M275.17,67.17c0-.67.54-1.2,1.28-1.2s1.28.5,1.28,1.15c0,.7-.53,1.25-1.28,1.25s-1.28-.53-1.28-1.2ZM275.44,69.78h2v8.55h-2v-8.55Z" style="fill:#154481;"/><path d="M288.54,69.78v7.25c0,3.11-1.62,4.51-4.61,4.51-1.6,0-3.18-.42-4.16-1.22l.9-1.5c.75.62,1.97,1.02,3.15,1.02,1.89,0,2.72-.86,2.72-2.59v-.45c-.7.77-1.71,1.14-2.87,1.14-2.45,0-4.32-1.67-4.32-4.15s1.87-4.11,4.32-4.11c1.2,0,2.26.38,2.96,1.23v-1.14h1.91ZM286.58,73.8c0-1.44-1.09-2.42-2.59-2.42s-2.61.98-2.61,2.42,1.09,2.45,2.61,2.45,2.59-.99,2.59-2.45Z" style="fill:#154481;"/><path d="M290.89,67.17c0-.67.54-1.2,1.28-1.2s1.28.5,1.28,1.15c0,.7-.53,1.25-1.28,1.25s-1.28-.53-1.28-1.2ZM291.16,69.78h2v8.55h-2v-8.55Z" style="fill:#154481;"/><path d="M300.93,77.87c-.48.38-1.2.58-1.92.58-1.87,0-2.95-.99-2.95-2.88v-4.11h-1.41v-1.6h1.41v-1.95h2v1.95h2.29v1.6h-2.29v4.07c0,.83.42,1.28,1.19,1.28.42,0,.82-.11,1.12-.35l.56,1.42Z" style="fill:#154481;"/><path d="M309.73,73.32v5.01h-1.89v-1.04c-.48.74-1.41,1.15-2.69,1.15-1.95,0-3.19-1.07-3.19-2.56s.96-2.54,3.55-2.54h2.21v-.13c0-1.17-.71-1.86-2.13-1.86-.96,0-1.95.32-2.59.85l-.78-1.46c.91-.7,2.24-1.06,3.62-1.06,2.46,0,3.89,1.17,3.89,3.63ZM307.73,75.66v-.99h-2.06c-1.36,0-1.73.51-1.73,1.14,0,.72.61,1.18,1.63,1.18s1.83-.45,2.16-1.33Z" style="fill:#154481;"/><path d="M312.28,66.45h2v11.88h-2v-11.88Z" style="fill:#154481;"/></g></g></g></svg>